<svg xmlns="http://www.w3.org/2000/svg" viewBox="0 0 64 64" role="img" aria-label="OTY NYC">
  <rect width="64" height="64" rx="14" fill="#fffaf0"/>
  <path d="M32 7l3.7 7.7 8.4-1.1-4.8 7 6.2 5.8-8.5 1.4-.6 8.5-6.4-5.6-7 4.8 1.7-8.3-8.1-2.6 7.5-4.1-3.2-7.9 7.8 3.4L32 7z" fill="#daa536"/>
  <path d="M30 14h4v34h-4z" fill="#916711"/>
  <path d="M19 25h26v4H19z" fill="#916711"/>
  <path d="M24 38c2.1 4.1 5 6.1 8 6.1s5.9-2 8-6.1" fill="none" stroke="#916711" stroke-width="4" stroke-linecap="round"/>
  <path d="M16 51h32" stroke="#daa536" stroke-width="4" stroke-linecap="round"/>
  <text x="32" y="59" text-anchor="middle" font-family="Inter, Arial, sans-serif" font-size="8" font-weight="900" fill="#916711">OTY</text>
</svg>
